<?xml version="1.0" encoding="utf-8"?>
<!-- Generator: Adobe Illustrator 21.1.0, SVG Export Plug-In . SVG Version: 6.00 Build 0)  -->
<svg version="1.1" id="Layer_1" xmlns="http://www.w3.org/2000/svg" xmlns:xlink="http://www.w3.org/1999/xlink" x="0px" y="0px"
	 viewBox="0 0 38 32" style="enable-background:new 0 0 38 32;" xml:space="preserve">
<style type="text/css">
	.st0{fill:#B89F89;}
</style>
<g>
	<rect x="16" y="14.2" class="st0" width="2.4" height="1.2"/>
	<path class="st0" d="M36.5,12.4l-4.1-0.6c-1-0.6-4.8-3-10.7-3H21c-3.4,0-6.8,0.9-9.7,2.5l-2.1,1.1c-2.4,0-4.8,0.7-6.9,1.9
		C1.5,14.8,1,15.7,1,16.6v3.6c0,0.3,0.3,0.6,0.6,0.6h2c0.7,1.9,2.7,2.9,4.6,2.2c1-0.4,1.8-1.2,2.2-2.2h16c0.7,1.9,2.7,2.9,4.6,2.2
		c1-0.4,1.8-1.2,2.2-2.2l0.3,0l2.1-0.8c0.9-0.3,1.4-1.2,1.4-2.1V13C37,12.7,36.8,12.4,36.5,12.4z M9.4,20.1
		c-0.3,1.3-1.5,2.1-2.8,1.9c-1.3-0.3-2.1-1.5-1.9-2.8c0.3-1.3,1.5-2.1,2.8-1.9C8.6,17.5,9.6,18.6,9.4,20.1z M20.2,19.6h-9.6
		c0-2-1.6-3.6-3.6-3.6c-2,0-3.6,1.6-3.6,3.6H2.2v-3c0-0.5,0.3-1.1,0.8-1.3c2-1.1,4.2-1.7,6.4-1.7h10.8V19.6z M20.2,12.4h-8.4
		l0.1-0.1c2.6-1.4,5.4-2.2,8.3-2.3V12.4z M21.4,10h0.3c2.4,0,4.8,0.5,7.1,1.4l-1,1h-6.4V10z M32.2,20.1c-0.3,1.3-1.5,2.1-2.8,1.9
		c-1.3-0.3-2.1-1.5-1.9-2.8c0.3-1.3,1.5-2.1,2.8-1.9C31.4,17.5,32.5,18.6,32.2,20.1z M35.8,14.2H34v1.2h1.8v2.5c0,0.4-0.3,0.8-0.7,1
		l-1.7,0.7c0-1.9-1.5-3.6-3.6-3.6c-2,0-3.6,1.6-3.6,3.6h-4.8v-6H28c0.2,0,0.3-0.1,0.4-0.2l1.6-1.6c0.7,0.3,2.1,1.1,2.1,1.1l3.7,0.5
		V14.2z"/>
</g>
</svg>
