<?xml version="1.0" encoding="utf-8"?>
<!-- Generator: Adobe Illustrator 24.0.0, SVG Export Plug-In . SVG Version: 6.00 Build 0)  -->
<svg version="1.1" id="Layer_1" xmlns="http://www.w3.org/2000/svg" xmlns:xlink="http://www.w3.org/1999/xlink" x="0px" y="0px"
	 viewBox="0 0 43 43" style="enable-background:new 0 0 43 43;" xml:space="preserve">
<style type="text/css">
	.st0{fill:none;stroke:#A1A1A1;stroke-width:1.6769;stroke-linecap:round;stroke-linejoin:round;stroke-miterlimit:10;}
</style>
<g>
	<path class="st0" d="M22.14,9.77h-1.27c-1.52,0-2.76-1.24-2.76-2.76V4.46c0-1.87,1.53-3.4,3.4-3.4h0c1.87,0,3.4,1.53,3.4,3.4v2.55
		C24.9,8.53,23.65,9.77,22.14,9.77z"/>
	<g>
		<line class="st0" x1="16.7" y1="19.32" x2="17.51" y2="41.93"/>
		<line class="st0" x1="26.3" y1="19.32" x2="25.49" y2="41.93"/>
		<line class="st0" x1="21.56" y1="28.64" x2="21.56" y2="41.93"/>
	</g>
	<path class="st0" d="M13.29,26.95v-11c0-1.41,1.14-2.56,2.56-2.56h11.31c1.41,0,2.56,1.14,2.56,2.56v11"/>
</g>
</svg>
