<?xml version="1.0" encoding="utf-8"?>
<!-- Generator: Adobe Illustrator 24.0.0, SVG Export Plug-In . SVG Version: 6.00 Build 0)  -->
<svg version="1.1" id="Layer_1" xmlns="http://www.w3.org/2000/svg" xmlns:xlink="http://www.w3.org/1999/xlink" x="0px" y="0px"
	 viewBox="0 0 43 43" style="enable-background:new 0 0 43 43;" xml:space="preserve">
<style type="text/css">
	.st0{fill:none;stroke:#A1A1A1;stroke-width:1.6769;stroke-linecap:round;stroke-linejoin:round;stroke-miterlimit:10;}
</style>
<g>
	<path class="st0" d="M21.5,41.68L21.5,41.68c-6.07,0-10.99-4.92-10.99-10.99v-6.73l19.57-9.32c1.12-0.53,2.41,0.28,2.41,1.52v14.54
		C32.49,36.76,27.57,41.68,21.5,41.68z"/>
	<path class="st0" d="M32.49,26.52v4.17c0,6.07-4.92,10.99-10.99,10.99h0c-6.07,0-10.99-4.92-10.99-10.99V16.14
		c0-1.24,1.29-2.05,2.4-1.52l8.65,4.07"/>
	<path class="st0" d="M14.19,14.98c-0.85-1.35-1.4-3.24-1.4-4.95c0-4.81,3.9-8.71,8.71-8.71s8.71,3.9,8.71,8.71
		c0,1.78-0.48,3.75-1.4,5.13"/>
	<line class="st0" x1="11.99" y1="10.01" x2="12.18" y2="10.01"/>
	<line class="st0" x1="30.84" y1="10.01" x2="31.03" y2="10.01"/>
	<path class="st0" d="M19.27,2c0,0,0.69,3.1,4.61,3.49"/>
	<g>
		<path class="st0" d="M17.02,10.42c0,0,1.16-1,2.26,0"/>
		<path class="st0" d="M23.72,10.42c0,0,1.16-1,2.26,0"/>
	</g>
</g>
</svg>
