<?xml version="1.0" encoding="utf-8"?>
<!-- Generator: Adobe Illustrator 24.0.0, SVG Export Plug-In . SVG Version: 6.00 Build 0)  -->
<svg version="1.1" id="Layer_1" xmlns="http://www.w3.org/2000/svg" xmlns:xlink="http://www.w3.org/1999/xlink" x="0px" y="0px"
	 viewBox="0 0 62.71 80.55" style="enable-background:new 0 0 62.71 80.55;" xml:space="preserve">
<style type="text/css">
	.st0{fill:#786659;}
	.st1{fill:#FFFFFF;}
</style>
<g>
	<path class="st0" d="M60.86,30.92c0-16.29-13.21-29.5-29.5-29.5s-29.5,13.21-29.5,29.5c0,6.92,2.39,13.28,6.38,18.31l23.12,30.13
		l23.12-30.13C58.47,44.19,60.86,37.84,60.86,30.92z"/>
	<path class="st1" d="M38.64,22.6c2.98,0.11,9.71,0,9.71,0v0.58c-3.9,0-6.9,2.32-8.94,5.94c-0.8,1.42-1.67,3.02-2.55,4.71
		c-0.17-0.26-0.35-0.52-0.53-0.78c1.11-2.11,2.2-4.07,3.12-5.7l0-0.01c1.68-3.04,0.33-4.22-0.82-4.22V22.6 M32.65,34.48
		c0,0-0.63-0.92-1.29-2.07c-0.66,1.15-1.29,2.07-1.29,2.07s0.56,1.12,1.29,2.73C32.09,35.6,32.65,34.48,32.65,34.48 M29.54,19.73
		c0,1.6,0.73,3.71,1.82,5.97c1.09-2.26,1.82-4.37,1.82-5.97c0-0.28-0.02-0.54-0.05-0.8c-0.02-0.14-0.04-0.27-0.07-0.39
		c0-0.02-0.01-0.05-0.01-0.07c-0.25-1.03-0.85-1.57-1.69-1.57c-0.84,0-1.44,0.54-1.69,1.57c0,0.02-0.01,0.04-0.01,0.06
		c-0.03,0.12-0.05,0.26-0.07,0.39C29.56,19.18,29.54,19.45,29.54,19.73 M39.98,37.44c1.62,0,2.94,1.32,2.94,2.94
		s-1.32,2.94-2.94,2.94c-1.62,0-2.94-1.32-2.94-2.94c0-0.93,0.44-1.75,1.12-2.29c-0.6-0.81-1.29-1.78-2.03-2.84
		c-1.61,3.15-3.19,6.48-4.32,9.46c-0.62,1.82-0.61,3.27-0.61,3.27l1.05-2.16c0.56,1.51,1.19,3.45,1.19,4.64
		c0,1.59-1.04,2.6-2.09,2.6c-1.04,0-2.09-1.01-2.09-2.6c0-1.52,1.01-4.25,1.62-5.77c-1.13-2.97-2.7-6.3-4.31-9.44
		c-0.73,1.06-1.43,2.03-2.03,2.84c0.68,0.54,1.12,1.36,1.12,2.29c0,1.62-1.32,2.94-2.94,2.94s-2.94-1.32-2.94-2.94
		s1.32-2.94,2.94-2.94c0.39,0,0.76,0.08,1.1,0.22c0.67-0.91,1.47-2.02,2.31-3.25c-1.03-1.98-2.05-3.85-2.96-5.48
		c-2.04-3.51-5-5.74-8.82-5.74V22.6c0,0,6.73,0.11,9.71,0v0.52c-1.15,0-2.5,1.19-0.82,4.22l0,0.01c2.41,4.25,5.92,10.75,8.1,16.24
		l0,0c0,0,0,0,0,0.01c1.16-2.92,2.69-6.12,4.24-9.12c-1.44-2.12-2.98-4.55-4.24-6.94c-1.15,2.18-2.54,4.4-3.87,6.39
		c-0.15-0.29-0.3-0.57-0.44-0.85c1.35-2.03,2.73-4.28,3.85-6.44c-1.29-2.58-2.18-5.04-2.18-6.9c0-3.54,2.31-5.18,2.41-5.25
		l0.24-0.16l0.24,0.16c0.1,0.07,2.41,1.71,2.41,5.25c0,1.86-0.89,4.33-2.18,6.9c2.08,4.05,5.11,8.38,7.05,11.02
		C39.21,37.52,39.59,37.44,39.98,37.44"/>
</g>
</svg>
