<?xml version="1.0" encoding="utf-8"?>
<!-- Generator: Adobe Illustrator 21.1.0, SVG Export Plug-In . SVG Version: 6.00 Build 0)  -->
<svg version="1.1" id="Layer_1" xmlns="http://www.w3.org/2000/svg" width="225px" height="71.5px" xmlns:xlink="http://www.w3.org/1999/xlink" x="0px" y="0px"
	 viewBox="0 0 230 65" style="enable-background:new 0 0 230 65;" xml:space="preserve">
<style type="text/css">
	.st0{fill:#D9D8D3;}
</style>
<g>
	<g>
		<path class="st0" d="M86.5,24.2v0.3c-1.4,0-2,0-4,5.2l-3.8,9.9h-0.3c-2.7-6.5-5.3-13.6-5.3-13.6c-0.6-1.6-1.3-1.6-2.1-1.6v-0.3H77
			v0.3c-1.8,0-1.4,1.8-1.3,2l3.9,10.5l2.7-7.2c0.7-2,2-5.2-1.2-5.2v-0.3H86.5z"/>
		<path class="st0" d="M95.1,24.2v0.3c-0.9,0-1.5,0.4-1.5,1.7v11.1c0,1.5,0.6,2.1,1.5,2.1v0.3h-5.3v-0.3c0.9,0,1.5-0.6,1.5-2.1V26.2
			c0-1.4-0.6-1.7-1.5-1.7v-0.3H95.1z"/>
		<path class="st0" d="M103.9,39.8c-3.6,0-5.2-1.2-5.2-1.2v-4.2h0.3c0.2,2.7,1.2,5.2,5,5.2c3.3,0,3.8-3.7,1.2-5.5l-3.6-2.3
			c-2.1-1.4-4.1-3.4-2.4-6c0,0,1.1-1.7,4.1-1.7c3.2,0,5,1,5,1v3.7h-0.3c-0.2-2.2-1.1-4.4-4.7-4.4c-2.4,0-4.2,3.1-0.9,5.2l3.6,2.4
			c2.9,1.9,3.4,4.4,2.3,6.2C108.2,38,107.3,39.8,103.9,39.8"/>
		<path class="st0" d="M117.8,39.8c-3.6,0-5.2-1.2-5.2-1.2v-4.2h0.3c0.2,2.7,1.2,5.2,5,5.2c3.3,0,3.8-3.7,1.2-5.5l-3.6-2.3
			c-2.1-1.4-4.1-3.4-2.4-6c0,0,1.1-1.7,4.1-1.7c3.2,0,5,1,5,1v3.7h-0.3c-0.2-2.2-1.1-4.4-4.7-4.4c-2.4,0-4.2,3.1-0.9,5.2l3.6,2.4
			c2.9,1.9,3.4,4.4,2.3,6.2C122.1,38,121.2,39.8,117.8,39.8"/>
		<path class="st0" d="M132,24.2v0.3c-0.9,0-1.5,0.4-1.5,1.7v11.1c0,1.5,0.6,2.1,1.5,2.1v0.3h-5.3v-0.3c0.9,0,1.5-0.6,1.5-2.1V26.2
			c0-1.4-0.6-1.7-1.5-1.7v-0.3H132z"/>
		<path class="st0" d="M147.3,24.5h-1v14.9h1c2.4,0,6.1-0.1,6.1-7.4C153.4,24.9,149.7,24.5,147.3,24.5 M147.3,39.6h-4.7v-0.3
			c0.9,0,1.5-0.8,1.5-2.3V26.8c0-1.4-0.5-2.3-1.5-2.3v-0.3h4.7c4.4,0,8.7,1.3,8.7,7.8C156,38.6,151.7,39.6,147.3,39.6"/>
		<path class="st0" d="M160.4,29.2c1.5-1.1,1.3-2.4,1-2.4c-0.3,0-0.6-0.1-0.9-0.4c-0.5-0.5-0.5-1.3,0-1.8c0.5-0.5,1.3-0.5,1.8,0
			c0.8,0.8,0.4,2.3-0.2,3.3c-0.3,0.4-0.6,1-1.6,1.5L160.4,29.2z"/>
		<path class="st0" d="M174.8,34.7l-2.9-7.3l-2.7,7.3H174.8z M180.2,39.6h-5v-0.3c1.2,0,1-1.3,0.5-2.5l-0.8-1.9h-5.7
			c-0.6,1.8-1.6,4.5,1.5,4.4v0.3h-4.9v-0.3c0.8,0,1.4-0.1,3.3-5.2l3.7-10h0.2c2.7,6.5,5.4,13.4,5.4,13.4c0.7,1.8,1.2,1.7,1.8,1.8
			V39.6z"/>
		<path class="st0" d="M187,24.5h-0.7v7.8h0.7c2.5,0,4.4,0,4.4-3.9C191.4,24.4,189.3,24.5,187,24.5 M196.1,39.6h-1.7
			c-2.8,0-2.5,0-3.7-4.8c-0.6-2.3-2.8-2.3-3.4-2.3h-1v4.8c0,1.5,0.5,2,1.4,2v0.3h-4.9v-0.3c0.9,0,1.4-0.4,1.4-2.3V26.1
			c0-1.4-0.4-1.7-1.4-1.7v-0.3h4.2c4.4,0,6.8,0.5,6.8,4.2c0,3-1.7,3.9-4.1,4c1.4,0.1,3,0.2,4.1,5c0.4,1.7,1.8,1.9,2.3,1.9V39.6z"/>
		<path class="st0" d="M211.3,24.2V28H211c-0.1-3.5-3.8-3.6-4.1-3.6h-1.3v13c0,1.4,0.7,1.8,1.6,1.8v0.3h-5.4v-0.3
			c0.9,0,1.6-0.4,1.6-1.8v-13h-1.3c-0.7,0-4,0-4,3.6h-0.3v-3.9H211.3z"/>
		<path class="st0" d="M225,35.1v4.6h-11v-0.3c0.9,0,1.2-0.8,1.2-2.3V26.5c0-1.4-0.2-2.1-1.2-2.1v-0.3h10.8v4h-0.3
			c-0.3-3.6-4.1-3.7-5.8-3.7h-1.2v7.2h1.4c0.6,0,2.9,0,3-2.2h0.3v4.7h-0.3c-0.1-2.2-2.5-2.2-3-2.2h-1.4v7.4h1c2,0,5.8,0.1,6.3-4.3
			H225z"/>
	</g>
	<g>
		<polygon class="st0" points="123.1,55 122.5,55 122.5,52.1 118.4,52.1 118.4,55 117.8,55 117.8,48.6 118.4,48.6 118.4,51.6 
			122.5,51.6 122.5,48.6 123.1,48.6 		"/>
		<g>
			<path class="st0" d="M138,51.8c0-1.5-1-2.8-2.7-2.8c-1.7,0-2.7,1.3-2.7,2.8c0,1.5,1,2.8,2.7,2.8C137,54.6,138,53.3,138,51.8
				 M132,51.8c0-1.9,1.3-3.4,3.3-3.4c2,0,3.3,1.5,3.3,3.4c0,1.9-1.3,3.3-3.3,3.3C133.3,55.2,132,53.7,132,51.8"/>
		</g>
		<polygon class="st0" points="146.5,48.6 151.7,48.6 151.7,49.2 149.4,49.2 149.4,55 148.8,55 148.8,49.2 146.5,49.2 		"/>
		<polygon class="st0" points="164.4,52.1 160.9,52.1 160.9,54.5 164.9,54.5 164.9,55 160.3,55 160.3,48.6 164.9,48.6 164.9,49.2 
			160.9,49.2 160.9,51.6 164.4,51.6 		"/>
		<polygon class="st0" points="173.8,55 173.8,48.6 174.4,48.6 174.4,54.5 178.2,54.5 178.2,55 		"/>
	</g>
	<g>
		<g>
			<path class="st0" d="M40.6,16.2V17c1.7,0,3.7,1.7,1.2,6.2l0,0c-1.4,2.4-3,5.3-4.6,8.4c0.3,0.4,0.5,0.8,0.8,1.1
				c1.3-2.5,2.6-4.8,3.7-6.9c3-5.3,7.4-8.7,13.1-8.7v-0.9C54.9,16.2,45,16.4,40.6,16.2"/>
			<path class="st0" d="M31.8,33.7c0,0-0.9-1.4-1.9-3c-1,1.7-1.9,3-1.9,3s0.8,1.6,1.9,4C31,35.3,31.8,33.7,31.8,33.7"/>
			<path class="st0" d="M27.3,12c0-0.4,0-0.8,0.1-1.2c0-0.2,0.1-0.4,0.1-0.6c0,0,0-0.1,0-0.1c0.4-1.5,1.3-2.3,2.5-2.3
				c1.2,0,2.1,0.8,2.5,2.3c0,0,0,0.1,0,0.1c0,0.2,0.1,0.4,0.1,0.6c0,0.4,0.1,0.8,0.1,1.2c0,2.3-1.1,5.4-2.7,8.8
				C28.3,17.5,27.3,14.4,27.3,12 M42.6,38c-0.6,0-1.1,0.1-1.6,0.3c-2.8-3.9-7.3-10.2-10.3-16.2c1.9-3.8,3.2-7.4,3.2-10.1
				c0-5.2-3.4-7.6-3.5-7.7l-0.3-0.2l-0.3,0.2C29.4,4.4,26,6.8,26,12c0,2.7,1.3,6.3,3.2,10.1c-1.6,3.2-3.7,6.5-5.6,9.4
				c0.2,0.4,0.4,0.8,0.6,1.2c1.9-2.9,4-6.2,5.7-9.4c1.9,3.5,4.1,7.1,6.2,10.2c-2.3,4.4-4.5,9.1-6.2,13.4c0,0,0,0,0,0l0,0
				C26.7,39,21.6,29.4,18,23.2l0,0c-2.5-4.5-0.5-6.2,1.2-6.2v-0.8c-4.4,0.2-14.2,0-14.2,0v0.9c5.6,0,10,3.3,12.9,8.4
				c1.3,2.4,2.8,5.1,4.3,8c-1.2,1.8-2.4,3.4-3.4,4.8c-0.5-0.2-1-0.3-1.6-0.3c-2.4,0-4.3,1.9-4.3,4.3c0,2.4,1.9,4.3,4.3,4.3
				s4.3-1.9,4.3-4.3c0-1.4-0.6-2.6-1.6-3.4c0.9-1.2,1.9-2.6,3-4.2c2.4,4.6,4.7,9.5,6.3,13.8c-0.9,2.2-2.4,6.2-2.4,8.5
				c0,2.3,1.5,3.8,3.1,3.8c1.5,0,3.1-1.5,3.1-3.8c0-1.8-0.9-4.6-1.7-6.8l-1.5,3.2c0,0,0-2.1,0.9-4.8c1.7-4.4,4-9.3,6.3-13.9
				c1.1,1.6,2.1,3,3,4.2c-1,0.8-1.6,2-1.6,3.4c0,2.4,1.9,4.3,4.3,4.3c2.4,0,4.3-1.9,4.3-4.3C46.9,39.9,45,38,42.6,38"/>
		</g>
	</g>
</g>
</svg>
