<?xml version="1.0" encoding="utf-8"?>
<!-- Generator: Adobe Illustrator 22.1.0, SVG Export Plug-In . SVG Version: 6.00 Build 0)  -->
<svg version="1.1" id="Layer_1" xmlns="http://www.w3.org/2000/svg" xmlns:xlink="http://www.w3.org/1999/xlink" x="0px" y="0px"
	 viewBox="0 0 53.5 60.5" style="enable-background:new 0 0 53.5 60.5;" xml:space="preserve">
<style type="text/css">
	.st0{fill:#FFFFFF;}
</style>
<g>
	<g>
		<path class="st0" d="M37.4,14v0.8c1.7,0,3.7,1.7,1.2,6.2l0,0c-1.4,2.4-3,5.3-4.6,8.4c0.3,0.4,0.5,0.8,0.8,1.1
			c1.3-2.5,2.6-4.8,3.7-6.9c3-5.3,7.4-8.7,13.1-8.7V14C51.7,14,41.8,14.1,37.4,14"/>
		<path class="st0" d="M28.6,31.4c0,0-0.9-1.4-1.9-3c-1,1.7-1.9,3-1.9,3s0.8,1.6,1.9,4C27.8,33,28.6,31.4,28.6,31.4"/>
		<path class="st0" d="M24.1,9.8c0-0.4,0.1-4.2,2.7-4.2c2.8,0,2.7,3.8,2.7,4.2c0,2.3-1.1,5.4-2.7,8.8C25.2,15.2,24.1,12.1,24.1,9.8
			 M39.4,35.7c-0.6,0-1.1,0.1-1.6,0.3c-2.8-3.9-7.3-10.2-10.3-16.2c1.9-3.8,3.2-7.4,3.2-10.1c0-5.2-3.4-7.6-3.5-7.7l-0.3-0.2L26.6,2
			c-0.1,0.1-3.5,2.5-3.5,7.7c0,2.7,1.3,6.3,3.2,10.1c-1.6,3.2-3.7,6.5-5.6,9.4c0.2,0.4,0.4,0.8,0.6,1.2c1.9-2.9,4-6.2,5.7-9.4
			c1.9,3.5,4.1,7.1,6.2,10.2c-2.3,4.4-4.5,9.1-6.2,13.4l0,0l0,0c-3.2-8.1-8.3-17.6-11.9-23.8l0,0c-2.5-4.5-0.5-6.2,1.2-6.2V14
			c-4.4,0.2-14.2,0-14.2,0v0.9c5.6,0,10,3.3,12.9,8.4c1.3,2.4,2.8,5.1,4.3,8c-1.2,1.8-2.4,3.4-3.4,4.8c-0.5-0.2-1-0.3-1.6-0.3
			c-2.4,0-4.3,1.9-4.3,4.3c0,2.4,1.9,4.3,4.3,4.3s4.3-1.9,4.3-4.3c0-1.4-0.6-2.6-1.6-3.4c0.9-1.2,1.9-2.6,3-4.2
			c2.4,4.6,4.7,9.5,6.3,13.8c-0.9,2.2-2.4,6.2-2.4,8.5s1.5,3.8,3.1,3.8c1.5,0,3.1-1.5,3.1-3.8c0-1.8-0.9-4.6-1.7-6.8l-1.5,3.2
			c0,0,0-2.1,0.9-4.8c1.7-4.4,4-9.3,6.3-13.9c1.1,1.6,2.1,3,3,4.2c-1,0.8-1.6,2-1.6,3.4c0,2.4,1.9,4.3,4.3,4.3
			c2.4,0,4.3-1.9,4.3-4.3C43.7,37.7,41.8,35.7,39.4,35.7"/>
	</g>
</g>
</svg>
