<?xml version="1.0" encoding="utf-8"?>
<!-- Generator: Adobe Illustrator 21.1.0, SVG Export Plug-In . SVG Version: 6.00 Build 0)  -->
<svg version="1.1" id="Layer_1" xmlns="http://www.w3.org/2000/svg" xmlns:xlink="http://www.w3.org/1999/xlink" x="0px" y="0px"
	 viewBox="0 0 32 32" style="enable-background:new 0 0 32 32;" xml:space="preserve">
<style type="text/css">
	.st0{fill:#B89F89;}
</style>
<g id="Expanded">
	<g>
		<g>
			<path class="st0" d="M16.5,18.2c-0.1,0-0.3-0.1-0.4-0.2L7.5,9.3C7.3,9.2,7.3,9,7.4,8.8c0.1-0.2,0.3-0.3,0.5-0.3h17.3
				c0.2,0,0.4,0.1,0.5,0.3c0.1,0.2,0,0.4-0.1,0.6L16.9,18C16.8,18.1,16.7,18.2,16.5,18.2z M9.2,9.5l7.4,7.4l7.4-7.4H9.2z"/>
		</g>
		<g>
			<path class="st0" d="M16.5,27.9c-0.3,0-0.5-0.2-0.5-0.5v-9.8c0-0.3,0.2-0.5,0.5-0.5s0.5,0.2,0.5,0.5v9.8
				C17.1,27.7,16.8,27.9,16.5,27.9z"/>
		</g>
		<g>
			<path class="st0" d="M20.9,27.9h-8.7c-0.3,0-0.5-0.2-0.5-0.5s0.2-0.5,0.5-0.5h8.7c0.3,0,0.5,0.2,0.5,0.5S21.2,27.9,20.9,27.9z"/>
		</g>
		<g>
			<path class="st0" d="M10.7,9.3L7.9,6.5C7.4,6,6.7,5.7,6,5.7H3V4.6h3c1,0,2,0.4,2.7,1.1l2.8,2.8L10.7,9.3z"/>
		</g>
		<g>
			<path class="st0" d="M25.2,11.7c-0.7,0-1.4-0.2-2-0.6l0.6-0.9c0.4,0.3,0.9,0.4,1.4,0.4c1.5,0,2.7-1.2,2.7-2.7s-1.2-2.7-2.7-2.7
				c-1.5,0-2.7,1.2-2.7,2.7c0,0.3,0.1,0.6,0.2,0.9l-1,0.4c-0.1-0.4-0.2-0.8-0.2-1.3c0-2.1,1.7-3.8,3.8-3.8S29,5.8,29,7.9
				S27.3,11.7,25.2,11.7z"/>
		</g>
	</g>
</g>
</svg>
