<?xml version="1.0" encoding="utf-8"?>
<!-- Generator: Adobe Illustrator 24.0.0, SVG Export Plug-In . SVG Version: 6.00 Build 0)  -->
<svg version="1.1" id="Layer_1" xmlns="http://www.w3.org/2000/svg" xmlns:xlink="http://www.w3.org/1999/xlink" x="0px" y="0px"
	 viewBox="0 0 50 50" style="enable-background:new 0 0 50 50;" xml:space="preserve">
<style type="text/css">
	.st0{fill:none;stroke:#B89F89;stroke-width:1.5;stroke-linecap:round;stroke-linejoin:round;stroke-miterlimit:10;}
</style>
<g>
	<g>
		<path class="st0" d="M22.74,47c0,0-1.61-37.27-1.61-38.54C21.12,5.03,23.89,3,25,3"/>
		<path class="st0" d="M27.26,47c0,0,1.61-37.27,1.61-38.54C28.88,5.03,26.11,3,25,3"/>
		<polyline class="st0" points="21.25,17.09 3,24.83 3,28.81 21.39,27.15 		"/>
		<polyline class="st0" points="28.75,17.09 47,24.83 47,28.81 28.61,27.15 		"/>
		<polyline class="st0" points="22.52,41.86 14.91,44.48 14.91,47 28.99,47 		"/>
		<polyline class="st0" points="27.48,41.86 35.09,44.48 35.09,47 28.99,47 		"/>
	</g>
	<path class="st0" d="M23.64,8.7c0,0,1.29-0.63,2.6,0"/>
</g>
</svg>
