<?xml version="1.0" encoding="utf-8"?>
<!-- Generator: Adobe Illustrator 21.1.0, SVG Export Plug-In . SVG Version: 6.00 Build 0)  -->
<svg version="1.1" id="Layer_1" width="32" height="32" xmlns="http://www.w3.org/2000/svg" xmlns:xlink="http://www.w3.org/1999/xlink" x="0px" y="0px"
	 viewBox="0 0 32 32" style="enable-background:new 0 0 32 32;" xml:space="preserve">
<style type="text/css">
	.st0{fill:#B89F89;}
</style>
<g>
	<path class="st0" d="M16.7,9.9h-4.2v12.2h1.4v-3.9h2.8c2.3,0,4.1-1.8,4.1-4.1V14C20.8,11.7,19,9.9,16.7,9.9z M19.4,14.1
		c0,1.5-1.2,2.7-2.7,2.7h-2.8v-5.5h2.8c1.5,0,2.7,1.2,2.7,2.7V14.1z"/>
	<path class="st0" d="M25.9,6.1C23.3,3.5,19.7,2,16,2S8.7,3.5,6.1,6.1C3.5,8.7,2,12.3,2,16s1.5,7.3,4.1,9.9S12.3,30,16,30
		s7.3-1.5,9.9-4.1c2.6-2.6,4.1-6.2,4.1-9.9S28.5,8.7,25.9,6.1z M25.1,25.1c-2.4,2.4-5.7,3.8-9.1,3.8c-3.4,0-6.7-1.3-9.1-3.8
		S3.1,19.4,3.1,16s1.3-6.7,3.8-9.1c2.4-2.4,5.7-3.8,9.1-3.8c3.4,0,6.7,1.3,9.1,3.8c2.4,2.4,3.8,5.7,3.8,9.1S27.5,22.7,25.1,25.1z"/>
</g>
</svg>
