<?xml version="1.0" encoding="utf-8"?>
<!-- Generator: Adobe Illustrator 24.0.0, SVG Export Plug-In . SVG Version: 6.00 Build 0)  -->
<svg version="1.1" id="Layer_1" xmlns="http://www.w3.org/2000/svg" xmlns:xlink="http://www.w3.org/1999/xlink" x="0px" y="0px"
	 viewBox="0 0 50 50" style="enable-background:new 0 0 50 50;" xml:space="preserve">
<style type="text/css">
	.st0{fill:none;stroke:#B89F89;stroke-width:1.5;stroke-linecap:round;stroke-linejoin:round;stroke-miterlimit:10;}
</style>
<path class="st0" d="M28.16,32.75h-6.33c-1.33,0-2.41-1.08-2.41-2.41V19.67c0-1.33,1.08-2.41,2.41-2.41h6.33
	c1.33,0,2.41,1.08,2.41,2.41v10.67C30.58,31.67,29.5,32.75,28.16,32.75z"/>
<path class="st0" d="M30.56,30.6l13.32,4.11c1.55,0.48,3.12-0.68,3.12-2.3V17.59c0-1.62-1.57-2.78-3.12-2.3L30.56,19.4"/>
<path class="st0" d="M19.44,30.6L6.12,34.71C4.57,35.19,3,34.03,3,32.41V17.59c0-1.62,1.57-2.78,3.12-2.3l13.32,4.11"/>
<line class="st0" x1="19.42" y1="23.04" x2="12.44" y2="21.69"/>
<line class="st0" x1="19.42" y1="27.06" x2="15.26" y2="27.76"/>
<line class="st0" x1="30.58" y1="23.04" x2="37.56" y2="21.69"/>
<line class="st0" x1="30.58" y1="27.06" x2="34.74" y2="27.76"/>
</svg>
