<?xml version="1.0" encoding="utf-8"?>
<!-- Generator: Adobe Illustrator 21.1.0, SVG Export Plug-In . SVG Version: 6.00 Build 0)  -->
<svg version="1.1" id="Layer_1" xmlns="http://www.w3.org/2000/svg" xmlns:xlink="http://www.w3.org/1999/xlink" x="0px" y="0px"
	 viewBox="0 0 48 32" style="enable-background:new 0 0 48 32;" xml:space="preserve">
<style type="text/css">
	.st0{fill:#B89F89;}
</style>
<path class="st0" d="M45,15.7c0-1.2-0.9-2.1-2-2.2H8.6V6.7c0-1.4,1.1-2.5,2.5-2.5c1.3-0.1,2.4,0.9,2.5,2.2c0,0.1,0,0.2,0,0.3h1.1
	c0-1.9-1.5-3.5-3.4-3.5c-0.1,0-0.1,0-0.2,0c-1.9,0-3.5,1.6-3.6,3.5v6.9H5c-1.2,0.1-2.1,1.1-2,2.3c0.1,1,0.7,1.8,1.7,2
	c0.2,2.1,1.8,4.4,6.1,5.9V29h2.4l1.1-4.3c3.2,0.5,6.5,0.8,9.8,0.8s6.6-0.2,9.8-0.7L35,29h2.4v-5c3.7-1.2,5.8-3.3,6.1-6.1
	C44.3,17.5,45,16.7,45,15.7z M12.3,27.8h-0.5v-3.7l1.4,0.3L12.3,27.8z M36.2,27.8h-0.5l-0.9-3.3c0.5-0.1,0.8-0.2,1.4-0.3V27.8z
	 M24,24.3c-11.4,0-17.7-2.3-18.3-6.5h36.6C41.8,19.7,41.7,24.3,24,24.3z M43,16.7H5c-0.6,0-1.1-0.5-1.1-1.1c0.1-0.6,0.5-1,1.1-1h38
	c0.6,0,1.1,0.5,1.1,1.1C44,16.2,43.6,16.7,43,16.7z M14.7,8.4c0,0.3-0.3,0.6-0.6,0.6s-0.6-0.3-0.6-0.6s0.3-0.6,0.6-0.6
	S14.7,8.1,14.7,8.4L14.7,8.4z M14.7,10.5c0,0.3-0.3,0.6-0.6,0.6s-0.6-0.3-0.6-0.6s0.3-0.6,0.6-0.6C14.5,9.9,14.7,10.1,14.7,10.5
	L14.7,10.5L14.7,10.5z M14.7,12.6c0,0.3-0.3,0.6-0.6,0.6s-0.6-0.3-0.6-0.6s0.3-0.6,0.6-0.6C14.5,12,14.7,12.3,14.7,12.6L14.7,12.6
	L14.7,12.6z"/>
</svg>
