<?xml version="1.0" encoding="utf-8"?>
<!-- Generator: Adobe Illustrator 24.0.0, SVG Export Plug-In . SVG Version: 6.00 Build 0)  -->
<svg version="1.1" id="Layer_1" xmlns="http://www.w3.org/2000/svg" xmlns:xlink="http://www.w3.org/1999/xlink" x="0px" y="0px"
	 viewBox="0 0 50 50" style="enable-background:new 0 0 50 50;" xml:space="preserve">
<style type="text/css">
	.st0{fill:none;stroke:#B89F89;stroke-width:1.5;stroke-linecap:round;stroke-linejoin:round;stroke-miterlimit:10;}
</style>
<path class="st0" d="M40.79,47V11.16c0-3.88-3.15-7.03-7.03-7.03h0c-3.88,0-7.03,3.15-7.03,7.03"/>
<path class="st0" d="M31.02,37.43H6.31v4.37c0,1.66,1.34,3,3,3h18.71c1.66,0,3-1.34,3-3V37.43z"/>
<path class="st0" d="M9.1,37.43v-9.7c0-1.66,1.34-3,3-3h13.13c1.66,0,3,1.34,3,3v9.7"/>
<line class="st0" x1="10.2" y1="44.8" x2="10.2" y2="47"/>
<line class="st0" x1="27.13" y1="44.8" x2="27.13" y2="47"/>
<line class="st0" x1="35.54" y1="47" x2="46.04" y2="47"/>
<path class="st0" d="M31.88,16.36c0-2.84-2.3-5.14-5.14-5.14s-5.14,2.3-5.14,5.14H31.88z"/>
<path class="st0" d="M29.14,16.36c0,1.33-1.08,2.41-2.41,2.41c-1.33,0-2.41-1.08-2.41-2.41"/>
</svg>
