<?xml version="1.0" encoding="utf-8"?>
<!-- Generator: Adobe Illustrator 21.1.0, SVG Export Plug-In . SVG Version: 6.00 Build 0)  -->
<svg version="1.1" id="Layer_1" xmlns="http://www.w3.org/2000/svg" xmlns:xlink="http://www.w3.org/1999/xlink" x="0px" y="0px"
	 viewBox="0 0 32 32" style="enable-background:new 0 0 32 32;" xml:space="preserve">
<style type="text/css">
	.st0{fill:#B89F89;}
</style>
<g>
	<path class="st0" d="M26.5,14L26.5,14V9.8c0-1.9-1.3-2.6-2.6-2.6H8c-1.3,0-2.6,0.7-2.6,2.6V14v0c-1.3,0.1-2.5,1-2.5,2.9v3.3
		c0,0.6,0.4,1,1,1h0.3v2.6c0,0.6,0.4,1,1,1h1c0.6,0,1-0.4,1-1v-2.6h17.6v2.6c0,0.6,0.4,1,1,1h1c0.6,0,1-0.4,1-1v-2.6h0.3
		c0.6,0,1-0.4,1-1v-3.3C29,15,27.8,14.2,26.5,14z M6.4,9.8c0-1.3,0.9-1.6,1.6-1.6h16c0.7,0,1.6,0.3,1.6,1.6V14h-0.8v-2.4
		c0-0.6-0.4-1-1-1h-6.2c-0.6,0-1,0.4-1,1V14h-1.2v-2.4c0-0.6-0.4-1-1-1H8.3c-0.6,0-1,0.4-1,1V14H6.3L6.4,9.8L6.4,9.8z M23.8,14h-6.2
		v-2.4h6.2V14z M14.5,14H8.3v-2.4h6.2V14z M5.8,15h0.5h1.9h6.2h3.2h6.2h1.8h0.5c0.7,0,1.9,0.3,1.9,1.9v0.8H3.9v-0.8
		C3.9,15.2,5.1,15,5.8,15z M6.2,23.8h-1v-2.6h1V23.8z M26.7,23.8h-1v-2.6h1V23.8z M26.7,20.2h-1H6.2h-1H3.9v-1.5H28v1.5H26.7z"/>
</g>
</svg>
