<?xml version="1.0" encoding="utf-8"?>
<!-- Generator: Adobe Illustrator 21.1.0, SVG Export Plug-In . SVG Version: 6.00 Build 0)  -->
<svg version="1.1" id="Layer_1" xmlns="http://www.w3.org/2000/svg" xmlns:xlink="http://www.w3.org/1999/xlink" x="0px" y="0px"
	 viewBox="0 0 32 32" style="enable-background:new 0 0 32 32;" xml:space="preserve">
<style type="text/css">
	.st0{fill:#B89F89;}
</style>
<g>
	<g>
		<path class="st0" d="M16,27.1c-6.1,0-11.1-5-11.1-11.1S9.9,4.9,16,4.9s11.1,5,11.1,11.1S22.1,27.1,16,27.1z M16,6.2
			c-5.4,0-9.8,4.4-9.8,9.8s4.4,9.8,9.8,9.8s9.8-4.4,9.8-9.8S21.4,6.2,16,6.2z"/>
	</g>
	<path class="st0" d="M16.7,15.9V9.7C16.7,9.3,16.4,9,16,9c-0.3,0-0.7,0.3-0.7,0.7V16v0.1c0,0.2,0,0.4,0.2,0.5l3.6,3.6
		c0.2,0.2,0.7,0.2,0.9,0c0.3-0.3,0.3-0.7,0-0.9L16.7,15.9z"/>
</g>
</svg>
