<?xml version="1.0" encoding="utf-8"?>
<!-- Generator: Adobe Illustrator 24.0.0, SVG Export Plug-In . SVG Version: 6.00 Build 0)  -->
<svg version="1.1" id="Layer_1" xmlns="http://www.w3.org/2000/svg" xmlns:xlink="http://www.w3.org/1999/xlink" x="0px" y="0px"
	 viewBox="0 0 50 50" style="enable-background:new 0 0 50 50;" xml:space="preserve">
<style type="text/css">
	.st0{fill:none;stroke:#B89F89;stroke-width:1.5;stroke-linecap:round;stroke-linejoin:round;stroke-miterlimit:10;}
</style>
<g>
	<rect x="3" y="37" class="st0" width="44" height="6"/>
	<path class="st0" d="M47,37H3v-5c0-1.66,1.34-3,3-3h38c1.66,0,3,1.34,3,3V37z"/>
	<path class="st0" d="M23.21,29H9.71v-2c0-1.66,1.34-3,3-3h7.5c1.66,0,3,1.34,3,3V29z"/>
	<path class="st0" d="M40.29,29h-13.5v-2c0-1.66,1.34-3,3-3h7.5c1.66,0,3,1.34,3,3V29z"/>
	<rect x="6" y="16" class="st0" width="38" height="13"/>
	<line class="st0" x1="47" y1="43" x2="47" y2="47"/>
	<line class="st0" x1="3" y1="43" x2="3" y2="47"/>
</g>
</svg>
