<?xml version="1.0" encoding="utf-8"?>
<!-- Generator: Adobe Illustrator 21.1.0, SVG Export Plug-In . SVG Version: 6.00 Build 0)  -->
<svg version="1.1" id="Layer_1" xmlns="http://www.w3.org/2000/svg" xmlns:xlink="http://www.w3.org/1999/xlink" x="0px" y="0px"
	 viewBox="0 0 32 32" style="enable-background:new 0 0 32 32;" xml:space="preserve">
<style type="text/css">
	.st0{fill:#B89F89;}
</style>
<g id="surface1">
	<path class="st0" d="M22.1,16.1c0.4,0.2,0.7,0,0.8-0.1c2.8-2.7,5.6-2.1,5.7-2.1c0.6,0.1,0.7-0.4,0.7-0.5c0-5.6-5.8-10.2-13-10.3H16
		C8.7,3,2.7,7.6,2.7,13.3c0,0.3,0.2,0.6,0.7,0.6s4.1-0.7,6.1,2.1c0.2,0.2,0.4,0.3,0.7,0.1c1.6-1.1,3.4-1.7,5.4-1.8v10.3H9.9
		l-3.4-4.9c-0.2-0.2-0.5-0.3-0.8-0.1c-0.2,0.2-0.3,0.5-0.1,0.8l3.6,5.2c0.1,0.2,0.3,0.2,0.5,0.2h1.7v2.1H5c-0.3,0-0.6,0.2-0.6,0.6
		C4.4,28.8,4.7,29,5,29h22.4c0.3,0,0.6-0.2,0.6-0.5c0-0.4-0.3-0.6-0.6-0.6h-6.3v-2.3h3c0.3,0,0.6-0.1,0.6-0.5c0-0.4-0.3-0.5-0.6-0.5
		h-7.3V14.3C18.7,14.4,20.5,15.1,22.1,16.1z M12.5,25.7h3.2v2.2h-3.2V25.7z M20,25.7v2.2h-3.2v-2.2H20z M28.2,12.7
		c-1.9-0.2-3.7,0.4-5.2,1.6c-0.3-3.8-1.7-7.7-3.7-9.8C24.1,5.5,27.8,8.7,28.2,12.7z M3.9,12.7c0.4-4.1,4.3-7.4,9.4-8.3
		c-2.1,2-3.5,6-3.8,9.8C7.6,12.6,5.1,12.6,3.9,12.7z M16.1,4.1h0.3c2.7,0.3,5.1,5.8,5.4,10.5c-1.7-0.9-3.6-1.4-5.5-1.4h-0.1h-0.1
		h-0.2c-1.9,0-3.7,0.5-5.4,1.4C10.9,9.7,13.4,4.2,16.1,4.1L16.1,4.1z"/>
</g>
</svg>
