<?xml version="1.0" encoding="utf-8"?>
<!-- Generator: Adobe Illustrator 24.0.0, SVG Export Plug-In . SVG Version: 6.00 Build 0)  -->
<svg version="1.1" id="Layer_1" xmlns="http://www.w3.org/2000/svg" xmlns:xlink="http://www.w3.org/1999/xlink" x="0px" y="0px"
	 viewBox="0 0 50 50" style="enable-background:new 0 0 50 50;" xml:space="preserve">
<style type="text/css">
	.st0{fill:none;stroke:#B89F89;stroke-width:1.5;stroke-linecap:round;stroke-linejoin:round;stroke-miterlimit:10;}
</style>
<g>
	<g>
		<path class="st0" d="M10.21,37.82c-3.57-3.7-5.76-8.73-5.76-14.27C4.45,12.2,13.65,3,25,3s20.55,9.2,20.55,20.55
			c0,5.54-2.2,10.58-5.76,14.27"/>
		<path class="st0" d="M14.96,33c-2.33-2.47-3.75-5.79-3.75-9.45c0-7.61,6.17-13.79,13.79-13.79s13.79,6.17,13.79,13.79
			c0,3.66-1.43,6.98-3.75,9.45"/>
		<path class="st0" d="M19.71,28.18c-1.08-1.24-1.74-2.86-1.74-4.63c0-3.88,3.15-7.03,7.03-7.03s7.03,3.15,7.03,7.03
			c0,1.77-0.66,3.39-1.74,4.63"/>
	</g>
	<line class="st0" x1="25" y1="23.55" x2="25" y2="47"/>
</g>
</svg>
