<?xml version="1.0" encoding="utf-8"?>
<!-- Generator: Adobe Illustrator 21.1.0, SVG Export Plug-In . SVG Version: 6.00 Build 0)  -->
<svg version="1.1" id="Layer_1" xmlns="http://www.w3.org/2000/svg" xmlns:xlink="http://www.w3.org/1999/xlink" x="0px" y="0px"
	 viewBox="0 0 38 32" style="enable-background:new 0 0 38 32;" xml:space="preserve">
<style type="text/css">
	.st0{fill:#B89F89;}
</style>
<path class="st0" d="M6,19.3c-0.3,0.1-0.4,0.5-0.3,0.8L7,22.9c0.1,0.2,0.4,0.4,0.8,0.3L18,18.5l-0.9,9.6c0,0.2,0.1,0.4,0.2,0.5
	c0.4,0.4,1,0.6,1.6,0.6c1.2,0,1.9-1,2.4-2.3l4-11.8l7.9-3.7c2.3-1.1,3.5-3.3,2.7-5c-0.5-0.9-1.3-1.5-2.3-1.6c-1.1-0.2-2.2,0-3.3,0.5
	l-9.1,4.3l-9.8-3.8c-1.2-0.5-2.2-0.5-2.9,0C7.8,6.2,7.5,7,7.5,7.7c0,0.2,0.1,0.4,0.3,0.5l6.6,4.5l-3.8,1.8l-6.3-1.6
	c-0.3-0.1-0.5,0.1-0.7,0.3L2,16c-0.1,0.2-0.1,0.6,0.3,0.8L7,18.8L6,19.3z M8.7,7.4c0-0.3,0.2-0.5,0.4-0.6c0.3-0.2,1-0.2,1.8,0.1
	l8.7,3.4l-4,1.9L8.7,7.4z M3.4,16l1-1.8l6.1,1.5c0.1,0,0.3,0,0.4,0l19.8-9.3C31.5,6,32.4,5.9,33.3,6c0.6,0.1,1.2,0.4,1.5,0.9
	c0.5,1.1-0.5,2.6-2.1,3.4l-6.9,3.2l0.4-1.2c0.1-0.3-0.1-0.7-0.4-0.8c-0.3-0.1-0.7,0.1-0.8,0.4l-4.9,14.6c-0.3,0.8-0.7,1.3-1.1,1.4
	c-0.3,0-0.5,0-0.7-0.1l1.2-12.5c0-0.3-0.2-0.6-0.5-0.7c-0.3,0-0.6,0.2-0.7,0.5l-0.2,1.9L7.9,21.9L7,20.1l1.7-0.8
	c0.5-0.3,0.4-0.9,0-1.1L3.4,16z M3.4,16"/>
</svg>
